<svg xmlns="http://www.w3.org/2000/svg" viewBox="79.65225000000001 -2.0000516089705034 41.40599999999999 41.39610321794101"><path fill="#C34813" fill-rule="evenodd" d="m112.628 18.71 3.887-3.885c3.391-3.38 3.391-8.881 0-12.274a8.6 8.6 0 0 0-6.13-2.538 8.64 8.64 0 0 0-6.13 2.538l-3.886 3.886-.013-.013-.007.007-3.892-3.893A8.6 8.6 0 0 0 90.327 0c-2.31 0-4.501.908-6.13 2.538-3.393 3.392-3.393 8.895 0 12.274l3.886 3.886-3.886 3.886a8.6 8.6 0 0 0-2.538 6.13c0 2.31.908 4.501 2.538 6.13a8.6 8.6 0 0 0 6.13 2.538c2.31 0 4.501-.908 6.13-2.538l3.892-3.893 3.906 3.907a8.6 8.6 0 0 0 6.13 2.538 8.64 8.64 0 0 0 6.13-2.538 8.6 8.6 0 0 0 2.538-6.13c0-2.31-.908-4.5-2.538-6.13l-3.887-3.886zm-6.744-14.543a6.32 6.32 0 0 1 4.501-1.856c1.697 0 3.299.654 4.501 1.856a6.37 6.37 0 0 1 0 9.002l-3.893 3.892-9.002-9 3.894-3.893zm-5.529 23.519-8.988-8.988 8.988-8.988 8.988 8.988zM85.823 13.169c-2.483-2.471-2.483-6.505 0-9.002a6.32 6.32 0 0 1 4.501-1.856c1.696 0 3.299.654 4.502 1.856l3.892 3.892-9 9.001-3.893-3.892zm9.003 20.059a6.32 6.32 0 0 1-4.502 1.856 6.33 6.33 0 0 1-4.5-1.856 6.33 6.33 0 0 1-1.857-4.501c0-1.697.655-3.299 1.856-4.501l3.907-3.907 9.001 9-3.905 3.908zm20.059 0a6.32 6.32 0 0 1-4.501 1.856 6.33 6.33 0 0 1-4.501-1.856l-3.907-3.906 9.002-9 3.905 3.905a6.32 6.32 0 0 1 1.858 4.501 6.32 6.32 0 0 1-1.858 4.501z" /></svg>